# xmcd
#
# Track frame offsets: 
#        150
#        13756
#        28577
#        44863
#        60360
#        74234
#        88741
#        103926
#        122017
#        133854
#        148036
#        160396
#        173992
#        185271
#
# Disc length: 2505 seconds
#
# Revision: 0
# Processed by: cddbd v1.5.2PL0 Copyright (c) Steve Scherf et al.
# Submitted via: ExactAudioCopy v0.99pb5
#
DISCID=d509c70e
DTITLE=The View - Hats Off To The Buskers
DYEAR=2007
DGENRE=Brit Pop
TTITLE0=Comin' Down
TTITLE1=Superstar Tradesman
TTITLE2=Same Jeans
TTITLE3=Don't Tell Me
TTITLE4=Skag Trendy
TTITLE5=The Don
TTITLE6=Face For The Radio
TTITLE7=Wasted Little DJ's
TTITLE8=Gran's For Tea
TTITLE9=Dance Into The Light
TTITLE10=Claudia
TTITLE11=Street Lights
TTITLE12=Wasteland
TTITLE13=Typical Time
EXTD=
EXTT0=
EXTT1=
EXTT2=
EXTT3=
EXTT4=
EXTT5=
EXTT6=
EXTT7=
EXTT8=
EXTT9=
EXTT10=
EXTT11=
EXTT12=
EXTT13=
PLAYORDER=
